<svg fill="#000000" width="80px" height="80px" viewBox="0 0 3.6 3.6" version="1.1" preserveAspectRatio="xMidYMid meet" xmlns="http://www.w3.org/2000/svg" xmlns:xlink="http://www.w3.org/1999/xlink"><title>dashboard-line</title><path class="clr-i-outline clr-i-outline-path-1" d="m2.518 1.232 -0.591 0.581a0.3 0.3 0 1 0 0.141 0.142l0.592 -0.581Z"/><path class="clr-i-outline clr-i-outline-path-2" d="M1.8 0.425A1.649 1.649 0 0 0 0.54 3.14l0.03 0.035h2.46l0.03 -0.035A1.649 1.649 0 0 0 1.8 0.425m1.134 2.55H0.666a1.443 1.443 0 0 1 -0.311 -0.784H0.7v-0.2H0.355A1.44 1.44 0 0 1 0.7 1.129l0.245 0.245 0.141 -0.141 -0.243 -0.246A1.44 1.44 0 0 1 1.7 0.629v0.35h0.2V0.63a1.447 1.447 0 0 1 1.34 1.361h-0.348v0.2h0.353a1.443 1.443 0 0 1 -0.311 0.784"/><path x="0" y="0" width="36" height="36" fill-opacity="0" d="M0 0H3.6V3.6H0V0z"/></svg>