<svg fill="#000000" xmlns="http://www.w3.org/2000/svg" width="80px" height="80px" viewBox="0 0 5.2 5.2" enable-background="new 0 0 52 52" xml:space="preserve"><g><path d="M4.2 2.23c-0.28 -0.11 -0.32 -0.22 -0.32 -0.33s0.08 -0.22 0.18 -0.3c0.17 -0.14 0.26 -0.35 0.26 -0.58 0 -0.44 -0.29 -0.82 -0.8 -0.82 -0.47 0 -0.75 0.32 -0.79 0.71 0 0.04 0.02 0.07 0.05 0.09 0.38 0.24 0.61 0.66 0.61 1.17 0 0.38 -0.15 0.72 -0.42 0.96 -0.02 0.02 -0.02 0.06 0 0.08 0.07 0.05 0.23 0.12 0.33 0.17 0.03 0.01 0.05 0.02 0.08 0.02h1.21c0.23 0 0.41 -0.19 0.41 -0.4v-0.06c0 -0.35 -0.38 -0.54 -0.8 -0.71"/><path d="M2.86 3.62c-0.34 -0.14 -0.39 -0.26 -0.39 -0.39s0.1 -0.26 0.21 -0.36c0.2 -0.17 0.31 -0.41 0.31 -0.69 0 -0.52 -0.34 -0.97 -0.96 -0.97 -0.61 0 -0.96 0.45 -0.96 0.97 0 0.28 0.11 0.52 0.31 0.69 0.11 0.1 0.21 0.23 0.21 0.36s-0.05 0.26 -0.4 0.39c-0.5 0.2 -0.99 0.43 -0.99 0.85V4.6c0 0.22 0.18 0.4 0.41 0.4h2.77c0.23 0 0.42 -0.18 0.42 -0.4v-0.14c0 -0.41 -0.44 -0.64 -0.94 -0.84"/></g></svg>